<svg xmlns="http://www.w3.org/2000/svg" width="100%" height="100%" preserveAspectRatio="xMidYMid meet" viewBox="-6.480897951632869e-8 -6.480897951632869e-8 299.9999694824219 52.47291564941406" overflow="visible"><defs id="SvgjsDefs2488"></defs><g id="SvgjsG2489" transform="scale(0.5436571161817004)" opacity="1"><g id="SvgjsG2490" class="4KW7yTMy2" transform="translate(-5.362133333333333, -5.362133333333333) scale(1.0724266666666666)" light-content="false" non-strokable="false" fill="#ffffff"><path d="M17.719 5L5 17.719V82.28L17.719 95h64.563L95 82.281V17.72L82.282 5zm1.5 3.125h61.563l11.093 11.094V80.78L80.782 91.875H19.219L8.125 80.781V19.22z"></path></g><g id="SvgjsG2491" class="text" transform="translate(47.45270007629395, 63.0882) scale(1)" light-content="false" fill="#ffffff"><path d="M-20.03 0L-20.03 -12.88L-9.24 -12.88L-9.24 0L-1.1 0L-1.1 -29.53L-9.24 -29.53L-9.24 -16.63L-20.03 -16.63L-20.03 -29.53L-28.17 -29.53L-28.17 0Z M29.79 -9.02C29.79 -10.08 29.61 -11.01 29.25 -11.82C28.9 -12.64 28.42 -13.35 27.82 -13.98C27.22 -14.6 26.52 -15.13 25.73 -15.59C24.93 -16.04 24.1 -16.44 23.23 -16.79C22.35 -17.13 21.46 -17.44 20.56 -17.7C19.66 -17.96 18.8 -18.2 17.98 -18.44C17.55 -18.56 17.08 -18.67 16.57 -18.77C16.06 -18.88 15.54 -19 15.01 -19.13C14.49 -19.27 13.98 -19.43 13.48 -19.62C12.99 -19.8 12.55 -20.04 12.16 -20.32C11.77 -20.61 11.46 -20.96 11.23 -21.37C11 -21.78 10.88 -22.28 10.88 -22.87C10.88 -23.6 11.04 -24.22 11.35 -24.72C11.67 -25.22 12.11 -25.62 12.67 -25.91C13.24 -26.21 13.92 -26.42 14.71 -26.55C15.51 -26.68 16.38 -26.74 17.32 -26.74C18.04 -26.74 18.8 -26.59 19.57 -26.28C20.35 -25.97 21.1 -25.54 21.81 -24.97C22.52 -24.4 23.17 -23.72 23.75 -22.93C24.33 -22.13 24.78 -21.25 25.11 -20.26L29.3 -24.51C28.54 -25.37 27.74 -26.15 26.89 -26.85C26.03 -27.56 25.09 -28.16 24.07 -28.67C23.04 -29.18 21.92 -29.57 20.71 -29.84C19.5 -30.11 18.16 -30.25 16.68 -30.25C15.6 -30.25 14.55 -30.18 13.51 -30.05C12.48 -29.92 11.51 -29.71 10.59 -29.42C9.68 -29.12 8.84 -28.73 8.07 -28.25C7.3 -27.76 6.64 -27.17 6.08 -26.46C5.52 -25.74 5.09 -24.91 4.78 -23.94C4.47 -22.98 4.32 -21.87 4.32 -20.63C4.32 -19.59 4.49 -18.67 4.83 -17.87C5.17 -17.07 5.63 -16.37 6.2 -15.76C6.78 -15.15 7.44 -14.63 8.2 -14.18C8.96 -13.74 9.77 -13.34 10.61 -13C11.46 -12.66 12.32 -12.36 13.2 -12.09C14.07 -11.82 14.91 -11.57 15.72 -11.34C16.13 -11.22 16.6 -11.1 17.13 -10.98C17.67 -10.87 18.21 -10.74 18.76 -10.59C19.32 -10.45 19.86 -10.27 20.4 -10.07C20.93 -9.86 21.4 -9.61 21.82 -9.32C22.24 -9.03 22.58 -8.67 22.84 -8.26C23.1 -7.85 23.23 -7.36 23.23 -6.79C23.23 -6.04 23.06 -5.41 22.72 -4.91C22.39 -4.41 21.93 -4.01 21.34 -3.71C20.75 -3.41 20.06 -3.2 19.27 -3.07C18.47 -2.94 17.63 -2.87 16.72 -2.87C15.96 -2.87 15.15 -3.04 14.28 -3.36C13.42 -3.69 12.59 -4.14 11.79 -4.72C10.99 -5.29 10.26 -5.98 9.59 -6.78C8.92 -7.58 8.39 -8.45 8.01 -9.39L3.82 -5.15C4.8 -4.11 5.77 -3.23 6.75 -2.5C7.72 -1.78 8.74 -1.19 9.8 -0.73C10.86 -0.27 11.99 0.06 13.2 0.28C14.4 0.49 15.71 0.59 17.13 0.59C18.21 0.59 19.28 0.53 20.32 0.41C21.37 0.29 22.36 0.08 23.3 -0.21C24.23 -0.49 25.1 -0.87 25.89 -1.35C26.68 -1.83 27.37 -2.43 27.95 -3.14C28.53 -3.85 28.98 -4.69 29.31 -5.66C29.63 -6.63 29.79 -7.75 29.79 -9.02Z"></path></g><g id="SvgjsG2492" class="text" transform="translate(343.33840732421874, 72.54419816894531) scale(1)" light-content="false" fill="#ffffff"><path d="M-194.19 0L-194.19 -18.4L-178.78 -18.4L-178.78 0L-167.14 0L-167.14 -42.19L-178.78 -42.19L-178.78 -23.76L-194.19 -23.76L-194.19 -42.19L-205.82 -42.19L-205.82 0Z M-136.19 -42.01C-136.19 -42.75 -136.33 -43.45 -136.61 -44.11C-136.9 -44.76 -137.28 -45.33 -137.77 -45.82C-138.26 -46.31 -138.84 -46.69 -139.5 -46.98C-140.16 -47.26 -140.87 -47.4 -141.61 -47.4C-142.35 -47.4 -143.05 -47.26 -143.7 -46.98C-144.36 -46.69 -144.93 -46.31 -145.42 -45.82C-145.91 -45.33 -146.29 -44.76 -146.58 -44.11C-146.86 -43.45 -147 -42.75 -147 -42.01C-147 -41.27 -146.86 -40.57 -146.58 -39.9C-146.29 -39.24 -145.91 -38.66 -145.42 -38.17C-144.93 -37.69 -144.36 -37.3 -143.7 -37.02C-143.05 -36.73 -142.35 -36.59 -141.61 -36.59C-140.87 -36.59 -140.16 -36.73 -139.5 -37.02C-138.84 -37.3 -138.26 -37.69 -137.77 -38.17C-137.28 -38.66 -136.9 -39.24 -136.61 -39.9C-136.33 -40.57 -136.19 -41.27 -136.19 -42.01ZM-136.63 0L-136.63 -33.81L-146.56 -33.81L-146.56 0Z M-106.44 0L-106.44 -39.14L-112.53 -49.42L-116.34 -49.42L-116.34 0Z M-21.97 -12.89C-21.97 -14.39 -22.22 -15.73 -22.73 -16.89C-23.24 -18.05 -23.92 -19.08 -24.78 -19.97C-25.64 -20.85 -26.63 -21.62 -27.77 -22.27C-28.9 -22.91 -30.09 -23.48 -31.34 -23.98C-32.59 -24.48 -33.86 -24.91 -35.15 -25.28C-36.44 -25.65 -37.67 -26.01 -38.84 -26.34C-39.45 -26.51 -40.12 -26.67 -40.85 -26.82C-41.58 -26.97 -42.32 -27.14 -43.08 -27.33C-43.83 -27.53 -44.55 -27.76 -45.26 -28.02C-45.96 -28.29 -46.59 -28.62 -47.15 -29.03C-47.7 -29.44 -48.15 -29.94 -48.48 -30.53C-48.81 -31.11 -48.98 -31.83 -48.98 -32.67C-48.98 -33.72 -48.75 -34.6 -48.3 -35.32C-47.86 -36.03 -47.23 -36.6 -46.42 -37.02C-45.6 -37.44 -44.63 -37.74 -43.5 -37.92C-42.37 -38.11 -41.13 -38.2 -39.78 -38.2C-38.74 -38.2 -37.67 -37.98 -36.56 -37.54C-35.44 -37.1 -34.38 -36.48 -33.36 -35.67C-32.35 -34.86 -31.42 -33.89 -30.59 -32.75C-29.76 -31.62 -29.12 -30.35 -28.65 -28.95L-22.67 -35.01C-23.74 -36.24 -24.89 -37.36 -26.11 -38.36C-27.33 -39.37 -28.68 -40.23 -30.14 -40.96C-31.61 -41.68 -33.2 -42.24 -34.93 -42.63C-36.66 -43.02 -38.58 -43.21 -40.69 -43.21C-42.23 -43.21 -43.74 -43.12 -45.21 -42.93C-46.69 -42.75 -48.08 -42.45 -49.39 -42.03C-50.7 -41.61 -51.9 -41.05 -52.99 -40.36C-54.09 -39.66 -55.03 -38.81 -55.83 -37.79C-56.63 -36.78 -57.25 -35.58 -57.69 -34.2C-58.13 -32.83 -58.35 -31.25 -58.35 -29.47C-58.35 -27.99 -58.11 -26.67 -57.62 -25.53C-57.13 -24.39 -56.48 -23.38 -55.66 -22.51C-54.84 -21.65 -53.89 -20.89 -52.8 -20.26C-51.72 -19.62 -50.57 -19.06 -49.36 -18.57C-48.15 -18.09 -46.92 -17.65 -45.67 -17.27C-44.42 -16.89 -43.22 -16.53 -42.06 -16.2C-41.48 -16.03 -40.8 -15.85 -40.04 -15.69C-39.28 -15.52 -38.5 -15.34 -37.71 -15.13C-36.92 -14.93 -36.15 -14.68 -35.38 -14.38C-34.62 -14.09 -33.94 -13.74 -33.35 -13.32C-32.75 -12.9 -32.27 -12.39 -31.9 -11.81C-31.53 -11.22 -31.34 -10.52 -31.34 -9.7C-31.34 -8.62 -31.58 -7.73 -32.06 -7.02C-32.54 -6.3 -33.2 -5.73 -34.04 -5.3C-34.88 -4.87 -35.86 -4.57 -37 -4.38C-38.13 -4.19 -39.34 -4.1 -40.63 -4.1C-41.72 -4.1 -42.88 -4.34 -44.12 -4.8C-45.35 -5.27 -46.53 -5.92 -47.67 -6.74C-48.82 -7.56 -49.87 -8.54 -50.82 -9.68C-51.78 -10.83 -52.53 -12.07 -53.08 -13.42L-59.06 -7.35C-57.67 -5.87 -56.28 -4.61 -54.88 -3.57C-53.49 -2.54 -52.03 -1.69 -50.52 -1.04C-49 -0.39 -47.39 0.09 -45.67 0.4C-43.95 0.7 -42.07 0.85 -40.04 0.85C-38.5 0.85 -36.98 0.76 -35.49 0.59C-33.99 0.41 -32.58 0.12 -31.24 -0.29C-29.9 -0.7 -28.67 -1.25 -27.53 -1.93C-26.4 -2.62 -25.42 -3.47 -24.59 -4.48C-23.76 -5.5 -23.11 -6.7 -22.66 -8.09C-22.2 -9.47 -21.97 -11.07 -21.97 -12.89Z M8.93 0L8.93 -29.91L19.18 -29.91L19.18 -33.84L8.93 -33.84L8.93 -46.29L-1 -46.29L-1 -33.84L-7.15 -33.84L-7.15 -29.91L-1 -29.91L-1 0Z M33.26 -14.47C33.26 -12.25 33.55 -10.2 34.11 -8.33C34.68 -6.47 35.54 -4.86 36.69 -3.52C37.84 -2.17 39.29 -1.11 41.03 -0.35C42.77 0.41 44.81 0.79 47.15 0.79C48.62 0.79 49.98 0.59 51.24 0.18C52.5 -0.23 53.64 -0.82 54.68 -1.58C55.71 -2.34 56.64 -3.26 57.45 -4.32C58.26 -5.39 58.95 -6.57 59.51 -7.88L64.05 0L67.86 0L67.86 -33.84L57.96 -33.84L57.96 -16.87C57.96 -16.13 57.9 -15.3 57.77 -14.37C57.64 -13.44 57.45 -12.5 57.18 -11.53C56.92 -10.56 56.58 -9.62 56.17 -8.7C55.76 -7.78 55.27 -6.97 54.68 -6.25C54.09 -5.54 53.42 -4.97 52.64 -4.53C51.87 -4.09 51 -3.87 50.02 -3.87C49.03 -3.87 48.16 -4.05 47.43 -4.41C46.7 -4.77 46.08 -5.26 45.57 -5.87C45.06 -6.49 44.65 -7.2 44.32 -8C44 -8.8 43.75 -9.63 43.58 -10.5C43.4 -11.37 43.28 -12.24 43.21 -13.11C43.14 -13.98 43.11 -14.79 43.11 -15.56C43.11 -16.87 43.18 -18.28 43.33 -19.8C43.47 -21.33 43.68 -22.89 43.94 -24.48C44.21 -26.07 44.53 -27.66 44.91 -29.25C45.29 -30.84 45.72 -32.37 46.21 -33.84L38.98 -33.84C38.1 -32.35 37.31 -30.8 36.6 -29.18C35.9 -27.56 35.3 -25.92 34.8 -24.26C34.3 -22.6 33.92 -20.94 33.66 -19.28C33.4 -17.62 33.26 -16.02 33.26 -14.47Z M122.23 0L122.23 -46.29L112.32 -46.29L112.32 -29.79C111.15 -31.42 109.74 -32.61 108.09 -33.37C106.44 -34.13 104.63 -34.51 102.66 -34.51C100.08 -34.51 97.77 -34.05 95.74 -33.13C93.71 -32.22 91.99 -30.97 90.59 -29.38C89.18 -27.8 88.11 -25.94 87.36 -23.79C86.62 -21.64 86.25 -19.34 86.25 -16.87C86.25 -14.41 86.62 -12.11 87.36 -9.96C88.11 -7.81 89.18 -5.94 90.59 -4.35C91.99 -2.76 93.71 -1.5 95.74 -0.59C97.77 0.33 100.08 0.79 102.66 0.79C103.96 0.79 105.21 0.6 106.39 0.21C107.57 -0.19 108.66 -0.74 109.64 -1.45C110.63 -2.16 111.5 -3.02 112.25 -4.01C113 -5.01 113.59 -6.12 114.02 -7.35L118.42 0ZM112.27 -16.87C112.27 -16 112.22 -15.07 112.13 -14.09C112.05 -13.12 111.89 -12.14 111.68 -11.18C111.46 -10.21 111.17 -9.29 110.79 -8.42C110.41 -7.55 109.92 -6.78 109.32 -6.11C108.73 -5.43 108.01 -4.9 107.17 -4.51C106.33 -4.12 105.35 -3.93 104.24 -3.93C103.13 -3.93 102.16 -4.13 101.34 -4.53C100.52 -4.93 99.81 -5.46 99.23 -6.14C98.64 -6.81 98.16 -7.59 97.78 -8.48C97.4 -9.37 97.1 -10.29 96.88 -11.25C96.67 -12.21 96.52 -13.17 96.43 -14.14C96.34 -15.1 96.3 -16.02 96.3 -16.87C96.3 -17.73 96.34 -18.65 96.43 -19.61C96.52 -20.58 96.67 -21.54 96.88 -22.5C97.1 -23.46 97.4 -24.37 97.78 -25.25C98.16 -26.13 98.64 -26.91 99.23 -27.58C99.81 -28.26 100.52 -28.79 101.34 -29.19C102.16 -29.59 103.13 -29.79 104.24 -29.79C105.25 -29.79 106.16 -29.58 106.95 -29.17C107.74 -28.75 108.43 -28.18 109.03 -27.48C109.62 -26.78 110.13 -25.98 110.54 -25.08C110.95 -24.18 111.28 -23.25 111.53 -22.29C111.79 -21.34 111.97 -20.39 112.09 -19.45C112.21 -18.52 112.27 -17.66 112.27 -16.87Z M152.89 -42.01C152.89 -42.75 152.75 -43.45 152.46 -44.11C152.18 -44.76 151.79 -45.33 151.31 -45.82C150.82 -46.31 150.24 -46.69 149.58 -46.98C148.91 -47.26 148.21 -47.4 147.47 -47.4C146.73 -47.4 146.03 -47.26 145.37 -46.98C144.72 -46.69 144.15 -46.31 143.66 -45.82C143.17 -45.33 142.79 -44.76 142.5 -44.11C142.22 -43.45 142.08 -42.75 142.08 -42.01C142.08 -41.27 142.22 -40.57 142.5 -39.9C142.79 -39.24 143.17 -38.66 143.66 -38.17C144.15 -37.69 144.72 -37.3 145.37 -37.02C146.03 -36.73 146.73 -36.59 147.47 -36.59C148.21 -36.59 148.91 -36.73 149.58 -37.02C150.24 -37.3 150.82 -37.69 151.31 -38.17C151.79 -38.66 152.18 -39.24 152.46 -39.9C152.75 -40.57 152.89 -41.27 152.89 -42.01ZM152.45 0L152.45 -33.81L142.52 -33.81L142.52 0Z M208.48 -16.99C208.48 -18.73 208.25 -20.38 207.78 -21.93C207.31 -23.48 206.66 -24.91 205.83 -26.22C205 -27.53 204 -28.71 202.83 -29.75C201.66 -30.8 200.37 -31.68 198.98 -32.4C197.58 -33.12 196.08 -33.68 194.49 -34.07C192.9 -34.46 191.27 -34.66 189.59 -34.66C187.91 -34.66 186.28 -34.46 184.69 -34.07C183.11 -33.68 181.62 -33.12 180.23 -32.4C178.83 -31.68 177.54 -30.8 176.37 -29.75C175.2 -28.71 174.2 -27.53 173.37 -26.22C172.54 -24.91 171.89 -23.48 171.42 -21.93C170.95 -20.38 170.72 -18.73 170.72 -16.99C170.72 -15.25 170.95 -13.61 171.42 -12.06C171.89 -10.5 172.54 -9.07 173.37 -7.76C174.2 -6.46 175.2 -5.28 176.37 -4.23C177.54 -3.19 178.83 -2.3 180.23 -1.58C181.62 -0.86 183.11 -0.3 184.69 0.09C186.28 0.48 187.91 0.67 189.59 0.67C191.27 0.67 192.9 0.48 194.49 0.09C196.08 -0.3 197.58 -0.86 198.98 -1.58C200.37 -2.3 201.66 -3.19 202.83 -4.23C204 -5.28 205 -6.46 205.83 -7.76C206.66 -9.07 207.31 -10.5 207.78 -12.04C208.25 -13.58 208.48 -15.23 208.48 -16.99ZM198.4 -16.99C198.4 -16.05 198.35 -15.07 198.24 -14.03C198.14 -13 197.95 -11.97 197.69 -10.96C197.42 -9.94 197.08 -8.97 196.65 -8.06C196.22 -7.14 195.67 -6.33 195.02 -5.62C194.37 -4.92 193.59 -4.36 192.69 -3.94C191.79 -3.52 190.76 -3.31 189.59 -3.31C188.45 -3.31 187.45 -3.53 186.57 -3.96C185.69 -4.38 184.92 -4.96 184.27 -5.67C183.61 -6.38 183.07 -7.2 182.63 -8.13C182.19 -9.06 181.83 -10.03 181.56 -11.04C181.29 -12.06 181.09 -13.08 180.97 -14.11C180.86 -15.13 180.8 -16.09 180.8 -16.99C180.8 -17.89 180.86 -18.85 180.97 -19.88C181.09 -20.9 181.29 -21.92 181.56 -22.92C181.83 -23.93 182.19 -24.9 182.63 -25.84C183.07 -26.78 183.61 -27.6 184.27 -28.32C184.92 -29.03 185.69 -29.6 186.57 -30.03C187.45 -30.46 188.45 -30.67 189.59 -30.67C190.78 -30.67 191.82 -30.46 192.72 -30.04C193.62 -29.62 194.39 -29.07 195.04 -28.37C195.68 -27.68 196.22 -26.87 196.66 -25.94C197.1 -25.01 197.45 -24.05 197.7 -23.04C197.96 -22.04 198.14 -21.01 198.24 -19.97C198.35 -18.92 198.4 -17.93 198.4 -16.99Z"></path></g></g></svg>