<svg xmlns="http://www.w3.org/2000/svg" width="100%" height="100%" preserveAspectRatio="xMidYMid meet" viewBox="0 0 300 54.29110336303711" overflow="visible"><defs id="SvgjsDefs2313"></defs><g id="SvgjsG2314" transform="scale(0.6201012005159242)" opacity="1"><g id="SvgjsG2315" class="AiIQr7CFL" transform="translate(0, 0) scale(0.87552)" light-content="false" non-strokable="false" fill="#ffffff"><path d="M10 0h80c5.523 0 10 4.477 10 10v80c0 5.523-4.477 10-10 10H10c-5.523 0-10-4.477-10-10V10C0 4.477 4.477 0 10 0zm0 2a8 8 0 0 0-8 8v80a8 8 0 0 0 8 8h80a8 8 0 0 0 8-8V10a8 8 0 0 0-8-8H10z"></path><path d="M10 4h80a6 6 0 0 1 6 6v80a6 6 0 0 1-6 6H10a6 6 0 0 1-6-6V10a6 6 0 0 1 6-6zm0 2a4 4 0 0 0-4 4v80a4 4 0 0 0 4 4h80a4 4 0 0 0 4-4V10a4 4 0 0 0-4-4H10z"></path></g><g id="SvgjsG2316" class="text" transform="translate(42.75699938964843, 55.67800091552734) scale(1)" light-content="false" fill="#ffffff"><path d="M-18.14 -0.92C-18.14 -0.26 -17.54 0.07 -16.34 0.07L-15.45 0.07C-14.25 0.07 -13.65 -0.26 -13.65 -0.92L-13.65 -10.23L-3.38 -10.23L-3.38 -0.92C-3.38 -0.26 -2.78 0.07 -1.58 0.07L-0.7 0.07C0.5 0.07 1.11 -0.26 1.11 -0.92L1.11 -22.88C1.11 -23.54 0.5 -23.87 -0.7 -23.87L-1.58 -23.87C-2.78 -23.87 -3.38 -23.54 -3.38 -22.88L-3.38 -14.08L-13.65 -14.08L-13.65 -22.88C-13.65 -23.54 -14.25 -23.87 -15.45 -23.87L-16.34 -23.87C-17.54 -23.87 -18.14 -23.54 -18.14 -22.88Z M8.5 -0.24C9.69 0.08 11.04 0.24 12.56 0.24C14.74 0.24 16.55 -0.36 18 -1.55C19.45 -2.74 20.18 -4.52 20.18 -6.9C20.18 -8.33 19.88 -9.5 19.28 -10.42C18.68 -11.34 17.96 -12.05 17.12 -12.55C16.28 -13.04 15.22 -13.55 13.92 -14.08C12.95 -14.46 12.21 -14.78 11.71 -15.03C11.21 -15.28 10.8 -15.61 10.46 -16.03C10.12 -16.45 9.95 -16.99 9.95 -17.65C9.95 -18.39 10.23 -19.01 10.81 -19.5C11.39 -19.99 12.29 -20.23 13.52 -20.23C14.54 -20.23 15.5 -20.04 16.41 -19.65C16.54 -19.58 16.73 -19.49 16.98 -19.38C17.23 -19.27 17.41 -19.21 17.53 -19.21C17.82 -19.21 18.16 -19.53 18.55 -20.18C18.93 -20.83 19.13 -21.35 19.13 -21.76C19.13 -22.1 18.89 -22.44 18.41 -22.78C17.89 -23.17 17.15 -23.47 16.2 -23.7C15.25 -23.92 14.26 -24.04 13.24 -24.04C11.82 -24.04 10.5 -23.79 9.3 -23.29C8.1 -22.79 7.14 -22.04 6.43 -21.03C5.71 -20.02 5.36 -18.8 5.36 -17.37C5.36 -16.06 5.58 -14.97 6.04 -14.11C6.49 -13.25 7.07 -12.56 7.77 -12.05C8.47 -11.54 9.34 -11.06 10.39 -10.61L11.58 -10.1C12.51 -9.71 13.23 -9.38 13.75 -9.1C14.27 -8.81 14.71 -8.46 15.06 -8.04C15.41 -7.62 15.59 -7.11 15.59 -6.49C15.59 -5.52 15.24 -4.79 14.55 -4.3C13.86 -3.81 13.01 -3.57 11.99 -3.57C11.08 -3.57 10.29 -3.68 9.61 -3.91C8.93 -4.14 8.23 -4.43 7.53 -4.79C7.1 -5.04 6.82 -5.17 6.68 -5.17C6.39 -5.17 6.01 -4.85 5.56 -4.2C5.11 -3.55 4.88 -3.01 4.88 -2.58C4.88 -2.24 5.16 -1.86 5.73 -1.43C6.39 -0.95 7.31 -0.56 8.5 -0.24Z"></path></g><g id="SvgjsG2317" class="text" transform="translate(302.56199450683596, 66.15600030517578) scale(1)" light-content="false" fill="#ffffff"><path d="M-179.01 -1.62C-179.01 -0.46 -177.95 0.12 -175.83 0.12L-174.27 0.12C-172.15 0.12 -171.09 -0.46 -171.09 -1.62L-171.09 -18.06L-152.97 -18.06L-152.97 -1.62C-152.97 -0.46 -151.91 0.12 -149.79 0.12L-148.23 0.12C-146.11 0.12 -145.05 -0.46 -145.05 -1.62L-145.05 -40.38C-145.05 -41.54 -146.11 -42.12 -148.23 -42.12L-149.79 -42.12C-151.91 -42.12 -152.97 -41.54 -152.97 -40.38L-152.97 -24.84L-171.09 -24.84L-171.09 -40.38C-171.09 -41.54 -172.15 -42.12 -174.27 -42.12L-175.83 -42.12C-177.95 -42.12 -179.01 -41.54 -179.01 -40.38Z M-123.87 -37.86C-123.87 -36.54 -122.61 -35.88 -120.09 -35.88C-118.73 -35.88 -117.74 -36.04 -117.12 -36.36C-116.5 -36.68 -116.19 -37.18 -116.19 -37.86L-116.19 -41.76C-116.19 -43.08 -117.45 -43.74 -119.97 -43.74C-122.57 -43.74 -123.87 -43.08 -123.87 -41.76ZM-123.81 -1.62C-123.81 -0.46 -122.75 0.12 -120.63 0.12L-119.43 0.12C-117.31 0.12 -116.25 -0.46 -116.25 -1.62L-116.25 -29.76C-116.25 -30.92 -117.31 -31.5 -119.43 -31.5L-120.63 -31.5C-122.75 -31.5 -123.81 -30.92 -123.81 -29.76Z M-93.63 -1.77C-92.11 -0.31 -90.07 0.42 -87.51 0.42C-83.99 0.42 -82.23 -0.42 -82.23 -2.1C-82.23 -2.58 -82.39 -3.33 -82.71 -4.35C-83.03 -5.37 -83.43 -5.88 -83.91 -5.88C-84.07 -5.88 -84.33 -5.84 -84.69 -5.76C-85.05 -5.68 -85.43 -5.64 -85.83 -5.64C-86.67 -5.64 -87.31 -5.89 -87.75 -6.39C-88.19 -6.89 -88.41 -7.72 -88.41 -8.88L-88.41 -43.5C-88.41 -44.62 -89.47 -45.18 -91.59 -45.18L-92.73 -45.18C-94.85 -45.18 -95.91 -44.62 -95.91 -43.5L-95.91 -8.76C-95.91 -5.56 -95.15 -3.23 -93.63 -1.77Z M-35.88 -0.42C-33.78 0.14 -31.39 0.42 -28.71 0.42C-24.87 0.42 -21.67 -0.63 -19.11 -2.73C-16.55 -4.83 -15.27 -7.98 -15.27 -12.18C-15.27 -14.7 -15.8 -16.77 -16.86 -18.39C-17.92 -20.01 -19.19 -21.26 -20.67 -22.14C-22.15 -23.02 -24.03 -23.92 -26.31 -24.84C-28.03 -25.52 -29.33 -26.08 -30.21 -26.52C-31.09 -26.96 -31.83 -27.55 -32.43 -28.29C-33.03 -29.03 -33.33 -29.98 -33.33 -31.14C-33.33 -32.46 -32.82 -33.55 -31.8 -34.41C-30.78 -35.27 -29.19 -35.7 -27.03 -35.7C-25.23 -35.7 -23.53 -35.36 -21.93 -34.68C-21.69 -34.56 -21.35 -34.4 -20.91 -34.2C-20.47 -34 -20.15 -33.9 -19.95 -33.9C-19.43 -33.9 -18.83 -34.47 -18.15 -35.61C-17.47 -36.75 -17.13 -37.68 -17.13 -38.4C-17.13 -39 -17.55 -39.6 -18.39 -40.2C-19.31 -40.88 -20.61 -41.42 -22.29 -41.82C-23.97 -42.22 -25.71 -42.42 -27.51 -42.42C-30.03 -42.42 -32.35 -41.98 -34.47 -41.1C-36.59 -40.22 -38.28 -38.89 -39.54 -37.11C-40.8 -35.33 -41.43 -33.18 -41.43 -30.66C-41.43 -28.34 -41.03 -26.42 -40.23 -24.9C-39.43 -23.38 -38.41 -22.17 -37.17 -21.27C-35.93 -20.37 -34.39 -19.52 -32.55 -18.72L-30.45 -17.82C-28.81 -17.14 -27.53 -16.55 -26.61 -16.05C-25.69 -15.55 -24.92 -14.93 -24.3 -14.19C-23.68 -13.45 -23.37 -12.54 -23.37 -11.46C-23.37 -9.74 -23.98 -8.45 -25.2 -7.59C-26.42 -6.73 -27.93 -6.3 -29.73 -6.3C-31.33 -6.3 -32.73 -6.5 -33.93 -6.9C-35.13 -7.3 -36.35 -7.82 -37.59 -8.46C-38.35 -8.9 -38.85 -9.12 -39.09 -9.12C-39.61 -9.12 -40.27 -8.55 -41.07 -7.41C-41.87 -6.27 -42.27 -5.32 -42.27 -4.56C-42.27 -3.96 -41.77 -3.28 -40.77 -2.52C-39.61 -1.68 -37.98 -0.98 -35.88 -0.42Z M5.64 -1.8C7.18 -0.32 9.23 0.42 11.79 0.42C15.31 0.42 17.07 -0.42 17.07 -2.1C17.07 -2.58 16.91 -3.33 16.59 -4.35C16.27 -5.37 15.87 -5.88 15.39 -5.88C15.19 -5.88 14.91 -5.84 14.55 -5.76C14.19 -5.68 13.81 -5.64 13.41 -5.64C12.57 -5.64 11.94 -5.88 11.52 -6.36C11.1 -6.84 10.89 -7.68 10.89 -8.88L10.89 -25.32L14.55 -25.32C15.11 -25.32 15.52 -25.52 15.78 -25.92C16.04 -26.32 16.17 -26.98 16.17 -27.9L16.17 -28.8C16.17 -29.72 16.04 -30.38 15.78 -30.78C15.52 -31.18 15.11 -31.38 14.55 -31.38L10.89 -31.38L10.89 -37.26C10.89 -38.42 10.03 -39 8.31 -39L6.87 -39C5.23 -39 4.31 -38.42 4.11 -37.26L3.33 -31.38L1.71 -31.38C1.15 -31.38 0.74 -31.18 0.48 -30.78C0.22 -30.38 0.09 -29.72 0.09 -28.8L0.09 -27.9C0.09 -26.98 0.22 -26.32 0.48 -25.92C0.74 -25.52 1.15 -25.32 1.71 -25.32L3.33 -25.32L3.33 -8.76C3.33 -5.6 4.1 -3.28 5.64 -1.8Z M34.53 -9.3C34.53 -2.82 37.57 0.42 43.65 0.42C45.41 0.42 47.1 0 48.72 -0.84C50.34 -1.68 51.69 -2.76 52.77 -4.08C52.81 -3.84 52.9 -3.38 53.04 -2.7C53.18 -2.02 53.39 -1.39 53.67 -0.81C53.95 -0.23 54.41 0.06 55.05 0.06C56.09 0.06 57.27 -0.09 58.59 -0.39C59.91 -0.69 60.57 -1.12 60.57 -1.68C60.57 -1.96 60.45 -2.73 60.21 -3.99C59.97 -5.25 59.85 -7.24 59.85 -9.96L59.85 -29.76C59.85 -30.92 58.79 -31.5 56.67 -31.5L55.47 -31.5C53.35 -31.5 52.29 -30.92 52.29 -29.76L52.29 -9.6C51.65 -8.56 50.82 -7.68 49.8 -6.96C48.78 -6.24 47.69 -5.88 46.53 -5.88C43.53 -5.88 42.03 -7.36 42.03 -10.32L42.03 -29.76C42.03 -30.92 40.97 -31.5 38.85 -31.5L37.71 -31.5C36.59 -31.5 35.78 -31.36 35.28 -31.08C34.78 -30.8 34.53 -30.36 34.53 -29.76Z M84.21 -1.53C85.93 -0.23 87.91 0.42 90.15 0.42C91.91 0.42 93.54 0.02 95.04 -0.78C96.54 -1.58 97.77 -2.68 98.73 -4.08C98.77 -3.84 98.86 -3.38 99 -2.7C99.14 -2.02 99.35 -1.39 99.63 -0.81C99.91 -0.23 100.37 0.06 101.01 0.06C102.05 0.06 103.23 -0.09 104.55 -0.39C105.87 -0.69 106.53 -1.12 106.53 -1.68C106.53 -1.96 106.41 -2.73 106.17 -3.99C105.93 -5.25 105.81 -7.24 105.81 -9.96L105.81 -43.5C105.81 -44.62 104.75 -45.18 102.63 -45.18L101.43 -45.18C99.31 -45.18 98.25 -44.62 98.25 -43.5L98.25 -29.52C96.29 -31.04 93.97 -31.8 91.29 -31.8C87.41 -31.8 84.35 -30.37 82.11 -27.51C79.87 -24.65 78.75 -20.72 78.75 -15.72C78.75 -12.4 79.23 -9.53 80.19 -7.11C81.15 -4.69 82.49 -2.83 84.21 -1.53ZM98.25 -9.6C96.45 -7.08 94.45 -5.82 92.25 -5.82C90.33 -5.82 88.89 -6.67 87.93 -8.37C86.97 -10.07 86.49 -12.56 86.49 -15.84C86.49 -22.4 88.65 -25.68 92.97 -25.68C94.89 -25.68 96.65 -25.12 98.25 -24Z M126.09 -37.86C126.09 -36.54 127.35 -35.88 129.87 -35.88C131.23 -35.88 132.22 -36.04 132.84 -36.36C133.46 -36.68 133.77 -37.18 133.77 -37.86L133.77 -41.76C133.77 -43.08 132.51 -43.74 129.99 -43.74C127.39 -43.74 126.09 -43.08 126.09 -41.76ZM126.15 -1.62C126.15 -0.46 127.21 0.12 129.33 0.12L130.53 0.12C132.65 0.12 133.71 -0.46 133.71 -1.62L133.71 -29.76C133.71 -30.92 132.65 -31.5 130.53 -31.5L129.33 -31.5C127.21 -31.5 126.15 -30.92 126.15 -29.76Z M156.33 -3.72C158.77 -0.96 162.33 0.42 167.01 0.42C171.65 0.42 175.18 -0.95 177.6 -3.69C180.02 -6.43 181.23 -10.42 181.23 -15.66C181.23 -20.9 180.02 -24.9 177.6 -27.66C175.18 -30.42 171.65 -31.8 167.01 -31.8C162.33 -31.8 158.77 -30.42 156.33 -27.66C153.89 -24.9 152.67 -20.9 152.67 -15.66C152.67 -10.46 153.89 -6.48 156.33 -3.72ZM171.9 -8.13C170.84 -6.47 169.19 -5.64 166.95 -5.64C164.71 -5.64 163.05 -6.47 161.97 -8.13C160.89 -9.79 160.35 -12.32 160.35 -15.72C160.35 -19.08 160.89 -21.59 161.97 -23.25C163.05 -24.91 164.71 -25.74 166.95 -25.74C169.19 -25.74 170.84 -24.91 171.9 -23.25C172.96 -21.59 173.49 -19.08 173.49 -15.72C173.49 -12.32 172.96 -9.79 171.9 -8.13Z"></path></g></g></svg>