<svg xmlns="http://www.w3.org/2000/svg" width="100%" height="100%" preserveAspectRatio="xMidYMid meet" viewBox="0 0 186.2548065185547 147" overflow="visible"><defs id="SvgjsDefs2089"></defs><g id="SvgjsG2090" transform="scale(0.4281719678434114)" opacity="1"><g id="SvgjsG2091" class="F5XWo2Q8W" transform="translate(87, 0) scale(10.875)" light-content="false" non-strokable="false" fill="#ffffff"><path d="M22 8.077V5.5a.5.5 0 0 0-.5-.5A2.503 2.503 0 0 1 19 2.5a.5.5 0 0 0-.5-.5h-3.077c-.36-1.154-1.955-2-3.923-2S7.938.846 7.577 2H5.5a.5.5 0 0 0-.5.5C5 3.879 3.878 5 2.5 5a.5.5 0 0 0-.5.5v2.577C.846 8.437 0 10.032 0 12s.846 3.563 2 3.923V18.5a.5.5 0 0 0 .5.5C3.878 19 5 20.121 5 21.5a.5.5 0 0 0 .5.5h2.577c.36 1.154 1.955 2 3.923 2s3.562-.846 3.923-2H18.5a.5.5 0 0 0 .5-.5c0-1.379 1.122-2.5 2.5-2.5a.5.5 0 0 0 .5-.5v-2.577c1.154-.36 2-1.955 2-3.923s-.846-3.563-2-3.923zM21.5 15a.5.5 0 0 0-.5.5v2.535A3.51 3.51 0 0 0 18.036 21H15.5a.5.5 0 0 0-.5.5c0 .71-1.232 1.5-3 1.5s-3-.79-3-1.5a.5.5 0 0 0-.5-.5H5.964A3.509 3.509 0 0 0 3 18.035V15.5a.5.5 0 0 0-.5-.5C1.791 15 1 13.768 1 12s.791-3 1.5-3a.5.5 0 0 0 .5-.5V5.965A3.51 3.51 0 0 0 5.964 3H8a.5.5 0 0 0 .5-.5c0-.71 1.232-1.5 3-1.5s3 .79 3 1.5a.5.5 0 0 0 .5.5h3.036A3.509 3.509 0 0 0 21 5.965V8.5a.5.5 0 0 0 .5.5c.709 0 1.5 1.232 1.5 3s-.791 3-1.5 3z"></path></g><g id="SvgjsG2092" class="text" transform="translate(215.71000061035156, 169.0280015258789) scale(1)" light-content="false" fill="#ffffff"><path d="M-11.2 -0.5C-12.1 0.06 -12.54 0.22 -12.54 0L5.38 0C5.38 0.15 4.93 -0.04 4.03 -0.56C3.14 -1.08 2.31 -2.11 1.57 -3.64C0.82 -5.17 0.45 -7.43 0.45 -10.42L0.45 -66.64C0.45 -69.63 0.8 -71.89 1.51 -73.42C2.22 -74.95 3.02 -75.99 3.92 -76.55C4.82 -77.11 5.26 -77.28 5.26 -77.06L-12.54 -77.06C-12.54 -77.21 -12.1 -77.02 -11.2 -76.5C-10.3 -75.97 -9.48 -74.95 -8.74 -73.42C-7.99 -71.89 -7.62 -69.63 -7.62 -66.64L-7.62 -40.77L-49.73 -40.77L-49.73 -66.64C-49.73 -69.63 -49.35 -71.89 -48.61 -73.42C-47.86 -74.95 -47.04 -75.97 -46.14 -76.5C-45.25 -77.02 -44.8 -77.21 -44.8 -77.06L-62.61 -77.06C-62.61 -77.21 -62.16 -77.02 -61.26 -76.5C-60.37 -75.97 -59.57 -74.95 -58.86 -73.42C-58.15 -71.89 -57.79 -69.63 -57.79 -66.64L-57.79 -10.42C-57.79 -7.43 -58.15 -5.17 -58.86 -3.64C-59.57 -2.11 -60.37 -1.06 -61.26 -0.5C-62.16 0.06 -62.61 0.22 -62.61 0L-44.8 0C-44.8 0.15 -45.25 -0.04 -46.14 -0.56C-47.04 -1.08 -47.86 -2.11 -48.61 -3.64C-49.35 -5.17 -49.73 -7.43 -49.73 -10.42L-49.73 -35.84L-7.62 -35.84L-7.62 -10.42C-7.62 -7.43 -7.99 -5.17 -8.74 -3.64C-9.48 -2.11 -10.3 -1.06 -11.2 -0.5Z M31.7 -0.28C35.28 0.8 39.01 1.34 42.9 1.34C47.08 1.34 50.94 0.47 54.49 -1.29C58.03 -3.04 60.87 -5.56 63 -8.85C65.13 -12.13 66.19 -16.02 66.19 -20.5C66.19 -24.45 65.3 -27.81 63.5 -30.58C61.71 -33.34 59.47 -35.58 56.78 -37.3C54.1 -39.01 50.66 -40.88 46.48 -42.9C42.37 -44.84 39.18 -46.48 36.9 -47.82C34.63 -49.17 32.7 -50.83 31.14 -52.81C29.57 -54.79 28.78 -57.16 28.78 -59.92C28.78 -63.73 30.09 -67.01 32.7 -69.78C35.32 -72.54 38.75 -73.92 43.01 -73.92C46.74 -73.92 50.42 -72.78 54.04 -70.5C57.66 -68.23 60.37 -65.03 62.16 -60.93L62.16 -73.02C59.4 -74.74 56.41 -76.07 53.2 -77C49.99 -77.93 46.7 -78.4 43.34 -78.4C39.46 -78.4 35.9 -77.56 32.65 -75.88C29.4 -74.2 26.82 -71.81 24.92 -68.71C23.02 -65.61 22.06 -62.09 22.06 -58.13C22.06 -53.5 23.54 -49.56 26.49 -46.31C29.44 -43.06 34.16 -39.95 40.66 -36.96C45.29 -34.79 48.87 -32.83 51.41 -31.08C53.95 -29.33 55.79 -27.44 56.95 -25.42C58.11 -23.41 58.69 -20.98 58.69 -18.14C58.69 -13.89 57.23 -10.32 54.32 -7.45C51.41 -4.57 47.79 -3.14 43.46 -3.14C39.13 -3.14 34.96 -4.42 30.97 -7C26.97 -9.58 24.01 -13.37 22.06 -18.37L22.06 -4.82C24.9 -2.87 28.11 -1.36 31.7 -0.28Z"></path></g><g id="SvgjsG2093" class="text" transform="translate(216.60000610351562, 342.5999984741211) scale(1)" light-content="false" fill="#ffffff"><path d="M-191.22 -17.7L-191.22 0L-183.3 0L-183.3 -41.88L-191.22 -41.88L-191.22 -24.72L-208.68 -24.72L-208.68 -41.88L-216.6 -41.88L-216.6 0L-208.68 0L-208.68 -17.7Z M-163.2 0L-144.18 0L-144.18 -6.36L-149.76 -6.36L-149.76 -35.52L-144.18 -35.52L-144.18 -41.88L-163.2 -41.88L-163.2 -35.52L-157.68 -35.52L-157.68 -6.36L-163.2 -6.36Z M-124.08 0L-99.66 0L-99.66 -7.02L-116.16 -7.02L-116.16 -41.88L-124.08 -41.88Z M-41.64 0.72C-39.12 0.72 -36.89 0.4 -34.95 -0.24C-33.01 -0.88 -31.37 -1.79 -30.03 -2.97C-28.69 -4.15 -27.67 -5.55 -26.97 -7.17C-26.27 -8.79 -25.92 -10.6 -25.92 -12.6C-25.92 -16.08 -26.93 -18.79 -28.95 -20.73C-30.97 -22.67 -34.1 -24.02 -38.34 -24.78L-42.24 -25.5C-44.28 -25.86 -45.76 -26.42 -46.68 -27.18C-47.6 -27.94 -48.06 -29.12 -48.06 -30.72C-48.06 -32.28 -47.49 -33.49 -46.35 -34.35C-45.21 -35.21 -43.5 -35.64 -41.22 -35.64C-38.98 -35.64 -37.12 -35.24 -35.64 -34.44C-34.16 -33.64 -32.9 -32.6 -31.86 -31.32L-26.46 -36.42C-28.14 -38.46 -30.16 -40 -32.52 -41.04C-34.88 -42.08 -37.64 -42.6 -40.8 -42.6C-43.16 -42.6 -45.27 -42.31 -47.13 -41.73C-48.99 -41.15 -50.58 -40.32 -51.9 -39.24C-53.22 -38.16 -54.23 -36.86 -54.93 -35.34C-55.63 -33.82 -55.98 -32.12 -55.98 -30.24C-55.98 -23.44 -51.8 -19.38 -43.44 -18.06L-39.48 -17.46C-37.28 -17.06 -35.78 -16.42 -34.98 -15.54C-34.18 -14.66 -33.78 -13.52 -33.78 -12.12C-33.78 -10.32 -34.4 -8.89 -35.64 -7.83C-36.88 -6.77 -38.72 -6.24 -41.16 -6.24C-43.32 -6.24 -45.29 -6.68 -47.07 -7.56C-48.85 -8.44 -50.46 -9.72 -51.9 -11.4L-57.24 -6.24C-55.44 -4.16 -53.29 -2.48 -50.79 -1.2C-48.29 0.08 -45.24 0.72 -41.64 0.72Z M9.24 -34.86L21.12 -34.86L21.12 -41.88L-10.56 -41.88L-10.56 -34.86L1.32 -34.86L1.32 0L9.24 0Z M47.1 -41.88L39.3 -41.88L39.3 -17.16C39.3 -14.08 39.58 -11.42 40.14 -9.18C40.7 -6.94 41.62 -5.08 42.9 -3.6C44.18 -2.12 45.83 -1.03 47.85 -0.33C49.87 0.37 52.36 0.72 55.32 0.72C58.24 0.72 60.73 0.37 62.79 -0.33C64.85 -1.03 66.52 -2.12 67.8 -3.6C69.08 -5.08 70.01 -6.94 70.59 -9.18C71.17 -11.42 71.46 -14.08 71.46 -17.16L71.46 -41.88L63.66 -41.88L63.66 -16.14C63.66 -12.86 63.03 -10.4 61.77 -8.76C60.51 -7.12 58.38 -6.3 55.38 -6.3C52.38 -6.3 50.25 -7.12 48.99 -8.76C47.73 -10.4 47.1 -12.86 47.1 -16.14Z M93 -41.88L93 0L108.24 0C110.96 0 113.43 -0.44 115.65 -1.32C117.87 -2.2 119.77 -3.51 121.35 -5.25C122.93 -6.99 124.15 -9.17 125.01 -11.79C125.87 -14.41 126.3 -17.46 126.3 -20.94C126.3 -24.42 125.87 -27.47 125.01 -30.09C124.15 -32.71 122.93 -34.89 121.35 -36.63C119.77 -38.37 117.87 -39.68 115.65 -40.56C113.43 -41.44 110.96 -41.88 108.24 -41.88ZM108.24 -7.02L100.92 -7.02L100.92 -34.86L108.24 -34.86C111.2 -34.86 113.55 -33.99 115.29 -32.25C117.03 -30.51 117.9 -27.84 117.9 -24.24L117.9 -17.64C117.9 -14.04 117.03 -11.37 115.29 -9.63C113.55 -7.89 111.2 -7.02 108.24 -7.02Z M144.6 0L163.62 0L163.62 -6.36L158.04 -6.36L158.04 -35.52L163.62 -35.52L163.62 -41.88L144.6 -41.88L144.6 -35.52L150.12 -35.52L150.12 -6.36L144.6 -6.36Z M200.16 0.72C202.92 0.72 205.42 0.26 207.66 -0.66C209.9 -1.58 211.82 -2.96 213.42 -4.8C215.02 -6.64 216.25 -8.9 217.11 -11.58C217.97 -14.26 218.4 -17.38 218.4 -20.94C218.4 -24.46 217.97 -27.57 217.11 -30.27C216.25 -32.97 215.02 -35.24 213.42 -37.08C211.82 -38.92 209.9 -40.3 207.66 -41.22C205.42 -42.14 202.92 -42.6 200.16 -42.6C197.4 -42.6 194.9 -42.14 192.66 -41.22C190.42 -40.3 188.51 -38.92 186.93 -37.08C185.35 -35.24 184.12 -32.97 183.24 -30.27C182.36 -27.57 181.92 -24.46 181.92 -20.94C181.92 -17.38 182.36 -14.26 183.24 -11.58C184.12 -8.9 185.35 -6.64 186.93 -4.8C188.51 -2.96 190.42 -1.58 192.66 -0.66C194.9 0.26 197.4 0.72 200.16 0.72ZM200.16 -6.3C197.16 -6.3 194.77 -7.3 192.99 -9.3C191.21 -11.3 190.32 -14.1 190.32 -17.7L190.32 -24.18C190.32 -27.78 191.21 -30.58 192.99 -32.58C194.77 -34.58 197.16 -35.58 200.16 -35.58C203.16 -35.58 205.55 -34.58 207.33 -32.58C209.11 -30.58 210 -27.78 210 -24.18L210 -17.7C210 -14.1 209.11 -11.3 207.33 -9.3C205.55 -7.3 203.16 -6.3 200.16 -6.3Z"></path></g></g></svg>