<svg width="472" height="184" viewBox="0 0 472 184" fill="none" xmlns="http://www.w3.org/2000/svg">
    <g clip-path="url(#clip0_6_23)">
        <path
            d="M96 0H130V6.28571H96V0ZM232 0H266V6.28571H232V0ZM96 0H101.667V110H96V0ZM266 110H232V103.714H266V110ZM130 110H96V103.714H130V110ZM266 110H260.333V0H266V110Z"
            fill="white" />
    </g>
    <g clip-path="url(#clip1_6_23)">
        <path fill-rule="evenodd" clip-rule="evenodd"
            d="M188.082 44.65L188.082 44.6513L188.077 44.649L188.082 44.65ZM173.921 79.673L173.917 79.6658L173.925 79.669L173.921 79.673ZM175.432 72.3493L175.433 72.3541L175.432 72.3543V72.3493Z"
            fill="white" />
        <path fill-rule="evenodd" clip-rule="evenodd"
            d="M195.479 94.6534H145.249C143.643 94.6523 142.052 94.3361 140.568 93.7229C139.084 93.1096 137.737 92.2115 136.604 91.0799L136.593 91.0679C135.456 89.9417 134.553 88.6038 133.937 87.1308C133.32 85.6578 133.002 84.0785 133 82.4833V28.1711C133 24.8311 134.381 21.7873 136.6 19.5775C137.733 18.4436 139.08 17.5437 140.565 16.9297C142.049 16.3157 143.641 15.9997 145.249 16H216.751C220.115 16 223.175 17.3688 225.396 19.5735C227.619 21.7883 229 24.8271 229 28.1711V82.4823C229 85.8304 227.623 88.8741 225.403 91.0799C223.63 92.8473 221.353 94.0307 218.88 94.4699L219.79 96.0331C220.342 96.9839 220.018 98.203 219.061 98.7527L210.36 103.737C209.901 103.998 209.357 104.068 208.846 103.932C208.335 103.797 207.898 103.466 207.631 103.013L204.093 96.929L198.825 99.9488C198.365 100.213 197.819 100.285 197.305 100.149C196.792 100.013 196.354 99.6808 196.088 99.2246C195.922 98.9436 195.831 98.626 195.82 98.3008L195.483 94.6534H195.479ZM199.315 92.6542C199.315 92.5255 199.303 92.4008 199.28 92.28L199.284 92.284L197.845 76.8367L197.841 76.7898L197.829 76.6731L197.44 72.5259L197.432 72.4331L197.425 72.3862L197.327 71.3337L198.853 72.4052C198.915 72.4516 198.979 72.4959 199.044 72.5379L216.817 85.0352L212.514 87.5024C212.055 87.7672 211.72 88.2023 211.583 88.7122C211.446 89.222 211.519 89.765 211.784 90.2219L213.707 93.5311C213.75 93.6137 213.797 93.6942 213.848 93.7725L215.319 96.3015L210.097 99.2944L206.56 93.2078C206.293 92.7512 205.855 92.4183 205.342 92.2823C204.828 92.1463 204.281 92.2183 203.821 92.4826L199.527 94.9457L199.315 92.6542ZM171.796 32.4171C171.889 32.27 171.981 32.1201 172.071 31.9701L174.033 28.5911H181.935C183.508 28.5997 185.055 28.1949 186.419 27.4179C187.744 26.6577 188.859 25.5474 189.674 24.1407L192.083 19.9945H216.755C217.835 19.9947 218.905 20.2064 219.903 20.6176C220.901 21.0288 221.808 21.6313 222.572 22.3908C223.336 23.1495 223.942 24.0504 224.356 25.042C224.77 26.0337 224.983 27.0966 224.983 28.1701V32.4171H171.796ZM137.024 36.4076H224.983L224.981 82.4873C224.981 83.5605 224.768 84.6231 224.353 85.6142C223.938 86.6052 223.331 87.5052 222.566 88.2626C221.804 89.0243 220.898 89.6289 219.901 90.0416C218.903 90.4542 217.833 90.6667 216.753 90.6669H216.669L216.258 89.9586L221.526 86.9307C221.816 86.7635 222.058 86.5268 222.232 86.2422C222.405 85.9577 222.504 85.6344 222.52 85.3021C222.535 84.9697 222.466 84.6389 222.319 84.3399C222.172 84.0409 221.952 83.7833 221.679 83.5907L202.562 70.1495C202.945 69.1364 203.253 68.0972 203.484 67.0399C203.828 65.4657 204.009 63.8325 204.009 62.1685C204.013 59.166 203.42 56.1923 202.264 53.4183C201.107 50.6442 199.411 48.1245 197.271 46.0038C195.137 43.8785 192.602 42.1931 189.81 41.0443C187.019 39.8955 184.026 39.306 181.005 39.3097C177.982 39.3058 174.989 39.8952 172.197 41.044C169.405 42.1928 166.869 43.8783 164.735 46.0038C160.573 50.142 157.997 55.8594 157.997 62.1685C157.997 68.4775 160.573 74.195 164.735 78.3291C166.869 80.4544 169.405 82.1399 172.198 83.289C174.99 84.4381 177.982 85.0282 181.005 85.0253C185.728 85.0266 190.337 83.5816 194.204 80.8871L195.114 90.6639H145.256C144.175 90.6637 143.103 90.4512 142.105 90.0386C141.106 89.626 140.199 89.0214 139.435 88.2596C137.949 86.7821 137.024 84.7369 137.024 82.4843V36.4076ZM171.219 25.4775C171.165 25.5556 171.116 25.6376 171.074 25.7229L171.079 25.7259L168.609 29.9739C168.149 30.761 167.533 31.3805 166.811 31.7925C166.109 32.1946 165.282 32.4131 164.379 32.421H137.021V28.1731C137.02 27.0995 137.233 26.0363 137.649 25.0452C138.064 24.0541 138.673 23.1546 139.44 22.3988C140.202 21.637 141.108 21.0323 142.106 20.6197C143.104 20.207 144.174 19.9946 145.254 19.9945H174.403L171.219 25.4775ZM181.934 24.6006H176.353H176.348L179.023 19.9945H187.458L186.203 22.1534C185.743 22.9405 185.128 23.5601 184.406 23.9731C183.696 24.3821 182.856 24.6006 181.934 24.6006ZM193.565 74.0682L193.757 76.1493L193.761 76.1483C192.143 77.6076 190.284 78.7787 188.265 79.6101L188.078 79.6879C188.434 79.036 188.756 78.366 189.043 77.6807C189.647 76.2091 190.137 74.694 190.51 73.1484C191.541 73.4111 192.56 73.718 193.565 74.0682ZM192.942 67.3921L193.161 69.7545L193.157 69.7505C192.529 69.5629 191.894 69.3874 191.259 69.2277C191.58 67.007 191.757 64.6256 191.757 62.1585C191.757 59.6924 191.58 57.318 191.259 55.0933C193.421 54.5523 195.537 53.8411 197.586 52.9663C199.115 55.6859 199.99 58.8234 199.99 62.1585C199.992 64.0513 199.709 65.9337 199.15 67.7433L196.158 65.6422C196.127 65.3144 196.015 64.9993 195.832 64.7252C195.648 64.4511 195.399 64.2266 195.107 64.072C194.814 63.9174 194.487 63.8375 194.156 63.8395C193.825 63.8415 193.499 63.9253 193.208 64.0835C192.918 64.2416 192.671 64.469 192.491 64.7453C192.311 65.0216 192.203 65.3381 192.176 65.6663C192.15 65.9944 192.206 66.324 192.34 66.6252C192.473 66.9265 192.68 67.19 192.942 67.3921ZM190.505 51.1736C190.097 49.5175 189.607 47.9971 189.039 46.6453C188.741 45.9365 188.423 45.2695 188.082 44.6513L188.077 44.649L188.082 44.65L188.082 44.6513C190.814 45.741 193.252 47.4481 195.204 49.6372C193.673 50.2501 192.103 50.7633 190.505 51.1736ZM171.497 73.1454C171.905 74.8015 172.395 76.3249 172.964 77.6777C173.247 78.3566 173.565 79.0202 173.917 79.6658L173.925 79.669L173.921 79.673L173.917 79.6658C171.187 78.5761 168.749 76.8693 166.798 74.6808C168.335 74.0653 169.905 73.5545 171.497 73.1454ZM170.242 62.1595C170.239 64.5243 170.406 66.8864 170.74 69.2277C168.578 69.7678 166.462 70.4783 164.413 71.3527C162.883 68.6321 162.008 65.4986 162.008 62.1595C162.005 58.9411 162.833 55.7756 164.413 52.9663C166.462 53.8414 168.578 54.5529 170.74 55.0943C170.414 57.315 170.242 59.6924 170.242 62.1595ZM172.963 46.6403C172.395 47.9931 171.901 49.5165 171.497 51.1696H171.493C169.895 50.7593 168.325 50.2461 166.794 49.6332C168.75 47.4452 171.189 45.7377 173.921 44.645C173.58 45.2656 173.262 45.932 172.963 46.6403ZM181.005 43.2903C182.531 43.2903 184.076 45.1558 185.339 48.1687H185.346C185.855 49.3982 186.268 50.6646 186.581 51.9567C184.736 52.2258 182.874 52.3612 181.009 52.3617C179.141 52.3617 177.278 52.2291 175.436 51.9567C175.751 50.6649 176.163 49.3986 176.671 48.1687C177.934 45.1558 179.478 43.2903 181.005 43.2903ZM174.263 62.1585C174.263 59.9567 174.411 57.8487 174.683 55.8804C176.775 56.1966 178.888 56.3557 181.005 56.3563C183.121 56.3555 185.235 56.1965 187.328 55.8804C187.603 57.8487 187.747 59.9607 187.747 62.1585C187.747 64.3603 187.599 66.4733 187.328 68.4406C184.677 68.0435 181.998 67.8949 179.327 68.0006C177.772 68.0617 176.221 68.2086 174.683 68.4406C174.407 66.4733 174.263 64.3603 174.263 62.1585ZM181.005 81.0237C179.479 81.0237 177.934 79.1582 176.671 76.1453C176.164 74.9138 175.75 73.6466 175.433 72.3541L175.432 72.3543V72.3493L175.433 72.3541C179.128 71.8102 182.883 71.8103 186.578 72.3543C186.23 73.741 185.814 75.015 185.339 76.1453C184.077 79.1582 182.531 81.0237 181.005 81.0237Z"
            fill="white" />
        <path
            class='first'
            d="M145.676 23.9771C146.509 24.0025 147.299 24.349 147.879 24.9434C148.46 25.5377 148.784 26.3331 148.784 27.161C148.784 27.989 148.46 28.7844 147.879 29.3787C147.299 29.973 146.509 30.3196 145.676 30.345C144.843 30.3196 144.053 29.973 143.473 29.3787C142.893 28.7844 142.568 27.989 142.568 27.161C142.568 26.3331 142.893 25.5377 143.473 24.9434C144.053 24.349 144.843 24.0025 145.676 23.9771Z"
            fill="#00D5D6" />
        <path
            class='second'
            d="M154.168 23.9771C153.335 24.0025 152.545 24.349 151.965 24.9434C151.385 25.5377 151.06 26.3331 151.06 27.161C151.06 27.989 151.385 28.7844 151.965 29.3787C152.545 29.973 153.335 30.3196 154.168 30.345C155.001 30.3196 155.791 29.973 156.371 29.3787C156.952 28.7844 157.276 27.989 157.276 27.161C157.276 26.3331 156.952 25.5377 156.371 24.9434C155.791 24.349 155.001 24.0025 154.168 23.9771Z"
            fill="#00D5D6" />
        <path
            class='third'
            d="M162.66 23.9771C161.827 24.0025 161.037 24.349 160.457 24.9434C159.877 25.5377 159.552 26.3331 159.552 27.161C159.552 27.989 159.877 28.7844 160.457 29.3787C161.037 29.973 161.827 30.3196 162.66 30.345C163.493 30.3196 164.283 29.973 164.863 29.3787C165.444 28.7844 165.768 27.989 165.768 27.161C165.768 26.3331 165.444 25.5377 164.863 24.9434C164.283 24.349 163.493 24.0025 162.66 23.9771Z"
            fill="#00D5D6" />
    </g>
    <!-- #FF0000 -->
    <!-- #00FF00 -->
    <!-- #1400FF -->
    <path
        d="M22.125 167H13.1562V122.188H22.125V140.125H40.0312V122.188H49V167H40.0312V149.094H22.125V167ZM66.3125 167H57.3438V122.188H66.3125V167ZM106.031 167H74.6562V122.188H83.625V158.031H106.031V167ZM126.031 135.625C126.031 133.771 126.385 132.031 127.094 130.406C127.802 128.781 128.76 127.365 129.969 126.156C131.198 124.927 132.625 123.958 134.25 123.25C135.875 122.542 137.615 122.188 139.469 122.188H160.031V131.156H139.469C138.844 131.156 138.26 131.271 137.719 131.5C137.177 131.729 136.698 132.052 136.281 132.469C135.885 132.865 135.573 133.333 135.344 133.875C135.115 134.417 135 135 135 135.625C135 136.25 135.115 136.844 135.344 137.406C135.573 137.948 135.885 138.427 136.281 138.844C136.698 139.24 137.177 139.552 137.719 139.781C138.26 140.01 138.844 140.125 139.469 140.125H148.438C150.292 140.125 152.031 140.479 153.656 141.188C155.302 141.875 156.729 142.833 157.938 144.062C159.167 145.271 160.125 146.698 160.812 148.344C161.521 149.969 161.875 151.708 161.875 153.562C161.875 155.417 161.521 157.156 160.812 158.781C160.125 160.406 159.167 161.833 157.938 163.062C156.729 164.271 155.302 165.229 153.656 165.938C152.031 166.646 150.292 167 148.438 167H128.531V158.031H148.438C149.062 158.031 149.646 157.917 150.188 157.688C150.729 157.458 151.198 157.146 151.594 156.75C152.01 156.333 152.333 155.854 152.562 155.312C152.792 154.771 152.906 154.188 152.906 153.562C152.906 152.938 152.792 152.354 152.562 151.812C152.333 151.271 152.01 150.802 151.594 150.406C151.198 149.99 150.729 149.667 150.188 149.438C149.646 149.208 149.062 149.094 148.438 149.094H139.469C137.615 149.094 135.875 148.74 134.25 148.031C132.625 147.323 131.198 146.365 129.969 145.156C128.76 143.927 127.802 142.5 127.094 140.875C126.385 139.229 126.031 137.479 126.031 135.625ZM185.969 167H177.031V131.156H163.562V122.188H199.406V131.156H185.969V167ZM239.5 149.094C239.5 151.573 239.031 153.906 238.094 156.094C237.156 158.26 235.875 160.156 234.25 161.781C232.625 163.385 230.719 164.656 228.531 165.594C226.365 166.531 224.042 167 221.562 167C219.083 167 216.75 166.531 214.562 165.594C212.396 164.656 210.5 163.385 208.875 161.781C207.271 160.156 206 158.26 205.062 156.094C204.125 153.906 203.656 151.573 203.656 149.094V122.188H212.594V149.094C212.594 150.323 212.823 151.479 213.281 152.562C213.76 153.646 214.406 154.594 215.219 155.406C216.031 156.219 216.979 156.865 218.062 157.344C219.167 157.802 220.333 158.031 221.562 158.031C222.792 158.031 223.948 157.802 225.031 157.344C226.135 156.865 227.094 156.219 227.906 155.406C228.719 154.594 229.354 153.646 229.812 152.562C230.292 151.479 230.531 150.323 230.531 149.094V122.188H239.5V149.094ZM283.188 144.594C283.188 146.656 282.917 148.646 282.375 150.562C281.854 152.458 281.104 154.24 280.125 155.906C279.146 157.552 277.979 159.062 276.625 160.438C275.271 161.792 273.76 162.958 272.094 163.938C270.427 164.917 268.635 165.677 266.719 166.219C264.823 166.74 262.844 167 260.781 167H247.281V122.188H260.781C262.844 122.188 264.823 122.458 266.719 123C268.635 123.521 270.427 124.271 272.094 125.25C273.76 126.229 275.271 127.406 276.625 128.781C277.979 130.135 279.146 131.646 280.125 133.312C281.104 134.958 281.854 136.74 282.375 138.656C282.917 140.552 283.188 142.531 283.188 144.594ZM274.219 144.594C274.219 142.74 273.865 141 273.156 139.375C272.469 137.75 271.51 136.333 270.281 135.125C269.073 133.896 267.646 132.927 266 132.219C264.375 131.51 262.635 131.156 260.781 131.156H256.312V158.031H260.781C262.635 158.031 264.375 157.688 266 157C267.646 156.292 269.073 155.333 270.281 154.125C271.51 152.896 272.469 151.469 273.156 149.844C273.865 148.198 274.219 146.448 274.219 144.594ZM298.125 167H289.156V122.188H298.125V167ZM350.375 144.781C350.375 146.906 350.094 148.958 349.531 150.938C348.99 152.896 348.219 154.74 347.219 156.469C346.219 158.177 345.01 159.74 343.594 161.156C342.177 162.573 340.615 163.792 338.906 164.812C337.198 165.812 335.354 166.583 333.375 167.125C331.396 167.688 329.344 167.969 327.219 167.969C325.094 167.969 323.042 167.688 321.062 167.125C319.104 166.583 317.26 165.812 315.531 164.812C313.823 163.792 312.26 162.573 310.844 161.156C309.427 159.74 308.208 158.177 307.188 156.469C306.188 154.74 305.406 152.896 304.844 150.938C304.302 148.958 304.031 146.906 304.031 144.781C304.031 142.656 304.302 140.604 304.844 138.625C305.406 136.646 306.188 134.802 307.188 133.094C308.208 131.385 309.427 129.823 310.844 128.406C312.26 126.99 313.823 125.781 315.531 124.781C317.26 123.781 319.104 123.01 321.062 122.469C323.042 121.906 325.094 121.625 327.219 121.625C329.344 121.625 331.396 121.906 333.375 122.469C335.354 123.01 337.198 123.781 338.906 124.781C340.615 125.781 342.177 126.99 343.594 128.406C345.01 129.823 346.219 131.385 347.219 133.094C348.219 134.802 348.99 136.646 349.531 138.625C350.094 140.604 350.375 142.656 350.375 144.781ZM341.469 144.781C341.469 142.823 341.094 140.979 340.344 139.25C339.594 137.5 338.573 135.99 337.281 134.719C336.01 133.427 334.5 132.406 332.75 131.656C331.021 130.906 329.177 130.531 327.219 130.531C325.24 130.531 323.385 130.906 321.656 131.656C319.927 132.406 318.417 133.427 317.125 134.719C315.833 135.99 314.812 137.5 314.062 139.25C313.312 140.979 312.938 142.823 312.938 144.781C312.938 146.74 313.312 148.583 314.062 150.312C314.812 152.021 315.833 153.521 317.125 154.812C318.417 156.104 319.927 157.125 321.656 157.875C323.385 158.625 325.24 159 327.219 159C329.177 159 331.021 158.625 332.75 157.875C334.5 157.125 336.01 156.104 337.281 154.812C338.573 153.521 339.594 152.021 340.344 150.312C341.094 148.583 341.469 146.74 341.469 144.781Z"
        fill="white" />
    <line x1="1.49996" y1="104.006" x2="0.499959" y2="183.007" stroke="white" />
    <line x1="362.5" y1="101" x2="362.5" y2="183" stroke="white" />
    <line x1="1" y1="182.5" x2="85" y2="182.5" stroke="white" />
    <line x1="278" y1="182.5" x2="362" y2="182.5" stroke="white" />
    <defs>
        <clipPath id="clip0_6_23">
            <rect width="170" height="110" fill="white" transform="translate(96)" />
        </clipPath>
        <clipPath id="clip1_6_23">
            <rect width="96" height="88" fill="white" transform="translate(133 16)" />
        </clipPath>
    </defs>
</svg>