<svg xmlns="http://www.w3.org/2000/svg" width="100%" height="100%" preserveAspectRatio="xMidYMid meet" viewBox="0 0 300.00006103515625 54.26673126220703" overflow="visible"><defs id="SvgjsDefs2061"></defs><g id="SvgjsG2062" transform="scale(0.5815621534858836)" opacity="1"><g id="SvgjsG2063" class="maHmWd2iC" transform="translate(0, 0) scale(3.8880000000000003)" light-content="false" non-strokable="false" fill="#ffffff"><path d="M22 8.077V5.5a.5.5 0 0 0-.5-.5A2.503 2.503 0 0 1 19 2.5a.5.5 0 0 0-.5-.5h-3.077c-.36-1.154-1.955-2-3.923-2S7.938.846 7.577 2H5.5a.5.5 0 0 0-.5.5C5 3.879 3.878 5 2.5 5a.5.5 0 0 0-.5.5v2.577C.846 8.437 0 10.032 0 12s.846 3.563 2 3.923V18.5a.5.5 0 0 0 .5.5C3.878 19 5 20.121 5 21.5a.5.5 0 0 0 .5.5h2.577c.36 1.154 1.955 2 3.923 2s3.562-.846 3.923-2H18.5a.5.5 0 0 0 .5-.5c0-1.379 1.122-2.5 2.5-2.5a.5.5 0 0 0 .5-.5v-2.577c1.154-.36 2-1.955 2-3.923s-.846-3.563-2-3.923zM21.5 15a.5.5 0 0 0-.5.5v2.535A3.51 3.51 0 0 0 18.036 21H15.5a.5.5 0 0 0-.5.5c0 .71-1.232 1.5-3 1.5s-3-.79-3-1.5a.5.5 0 0 0-.5-.5H5.964A3.509 3.509 0 0 0 3 18.035V15.5a.5.5 0 0 0-.5-.5C1.791 15 1 13.768 1 12s.791-3 1.5-3a.5.5 0 0 0 .5-.5V5.965A3.51 3.51 0 0 0 5.964 3H8a.5.5 0 0 0 .5-.5c0-.71 1.232-1.5 3-1.5s3 .79 3 1.5a.5.5 0 0 0 .5.5h3.036A3.509 3.509 0 0 0 21 5.965V8.5a.5.5 0 0 0 .5.5c.709 0 1.5 1.232 1.5 3s-.791 3-1.5 3z"></path></g><g id="SvgjsG2064" class="text" transform="translate(45.66999938964844, 59.831999389648445) scale(1)" light-content="false" fill="#ffffff"><path d="M0.65 0L0.65 -26.5L-4.57 -26.5L-4.57 -15.8L-16.42 -15.8L-16.42 -26.5L-21.64 -26.5L-21.64 0L-16.42 0L-16.42 -10.76L-4.57 -10.76L-4.57 0Z M15.62 -22C17.33 -22 19.33 -21.36 21.64 -20.09L23.62 -24.08C22.37 -24.9 21.08 -25.53 19.76 -25.97C18.44 -26.42 16.8 -26.64 14.83 -26.64C12.34 -26.52 10.34 -25.76 8.84 -24.37C7.34 -22.98 6.59 -21.14 6.59 -18.86C6.59 -17.3 6.95 -16.01 7.69 -14.98C8.42 -13.94 9.29 -13.15 10.3 -12.6C11.3 -12.05 12.56 -11.47 14.08 -10.87C16.64 -9.86 17.93 -8.68 17.93 -7.31C17.93 -6.25 17.52 -5.49 16.7 -5.02C15.89 -4.55 14.93 -4.32 13.82 -4.32C12.89 -4.32 11.83 -4.54 10.66 -4.97C9.48 -5.4 8.44 -5.95 7.52 -6.62L5.22 -2.56C6.56 -1.6 8.02 -0.88 9.58 -0.41C11.14 0.05 12.71 0.29 14.29 0.29C16.19 0.29 17.82 -0.05 19.19 -0.74C20.56 -1.42 21.59 -2.35 22.3 -3.51C23.01 -4.67 23.36 -5.94 23.36 -7.31C23.36 -8.89 23.07 -10.2 22.48 -11.23C21.89 -12.26 21.16 -13.07 20.27 -13.66C19.38 -14.25 18.31 -14.77 17.06 -15.23C15.53 -15.8 14.3 -16.41 13.37 -17.05C12.45 -17.68 11.99 -18.42 11.99 -19.26C11.99 -20.17 12.31 -20.86 12.94 -21.31C13.58 -21.77 14.47 -22 15.62 -22Z"></path></g><g id="SvgjsG2065" class="text" transform="translate(321.87199755859376, 69.69600015258789) scale(1)" light-content="false" fill="#ffffff"><path d="M-153.42 0L-153.42 -44.16L-162.12 -44.16L-162.12 -26.34L-181.86 -26.34L-181.86 -44.16L-190.56 -44.16L-190.56 0L-181.86 0L-181.86 -17.94L-162.12 -17.94L-162.12 0Z M-123 -26.22L-131.4 -26.22L-131.4 0L-123 0ZM-130.17 -38.55C-131.11 -37.73 -131.58 -36.72 -131.58 -35.52C-131.58 -34.32 -131.11 -33.32 -130.17 -32.52C-129.23 -31.72 -128.16 -31.32 -126.96 -31.32C-125.8 -31.32 -124.76 -31.72 -123.84 -32.52C-122.92 -33.32 -122.46 -34.32 -122.46 -35.52C-122.46 -36.72 -122.92 -37.73 -123.84 -38.55C-124.76 -39.37 -125.8 -39.78 -126.96 -39.78C-128.16 -39.78 -129.23 -39.37 -130.17 -38.55Z M-93.96 -47.34L-102.36 -47.34L-102.36 0L-93.96 0Z M-26.88 -36.66C-24.04 -36.66 -20.7 -35.6 -16.86 -33.48L-13.56 -40.14C-15.64 -41.5 -17.78 -42.55 -19.98 -43.29C-22.18 -44.03 -24.92 -44.4 -28.2 -44.4C-32.36 -44.2 -35.69 -42.94 -38.19 -40.62C-40.69 -38.3 -41.94 -35.24 -41.94 -31.44C-41.94 -28.84 -41.33 -26.68 -40.11 -24.96C-38.89 -23.24 -37.44 -21.92 -35.76 -21C-34.08 -20.08 -31.98 -19.12 -29.46 -18.12C-25.18 -16.44 -23.04 -14.46 -23.04 -12.18C-23.04 -10.42 -23.72 -9.15 -25.08 -8.37C-26.44 -7.59 -28.04 -7.2 -29.88 -7.2C-31.44 -7.2 -33.2 -7.56 -35.16 -8.28C-37.12 -9 -38.86 -9.92 -40.38 -11.04L-44.22 -4.26C-41.98 -2.66 -39.56 -1.47 -36.96 -0.69C-34.36 0.09 -31.74 0.48 -29.1 0.48C-25.94 0.48 -23.22 -0.09 -20.94 -1.23C-18.66 -2.37 -16.93 -3.91 -15.75 -5.85C-14.57 -7.79 -13.98 -9.9 -13.98 -12.18C-13.98 -14.82 -14.47 -17 -15.45 -18.72C-16.43 -20.44 -17.66 -21.79 -19.14 -22.77C-20.62 -23.75 -22.4 -24.62 -24.48 -25.38C-27.04 -26.34 -29.09 -27.35 -30.63 -28.41C-32.17 -29.47 -32.94 -30.7 -32.94 -32.1C-32.94 -33.62 -32.41 -34.76 -31.35 -35.52C-30.29 -36.28 -28.8 -36.66 -26.88 -36.66Z M16.02 -37.74L7.62 -37.74L7.62 -26.34L3.54 -26.34L3.54 -19.8L7.62 -19.8L7.62 0L16.02 0L16.02 -19.8L22.38 -19.8L22.38 -26.34L16.02 -26.34Z M67.2 -26.22L58.8 -26.22L58.8 -15.54C58.8 -12.7 58.25 -10.38 57.15 -8.58C56.05 -6.78 54.58 -5.88 52.74 -5.88C50.5 -5.88 49.32 -7.16 49.2 -9.72L49.2 -26.22L40.8 -26.22L40.8 -6.6C40.84 -4.32 41.66 -2.44 43.26 -0.96C44.86 0.52 46.86 1.26 49.26 1.26C51.5 1.26 53.45 0.77 55.11 -0.21C56.77 -1.19 58.06 -2.52 58.98 -4.2L59.58 0L67.2 0Z M116.64 -47.34L108.3 -47.34L108.3 -24.36C107.26 -25.4 105.98 -26.19 104.46 -26.73C102.94 -27.27 101.32 -27.54 99.6 -27.54C96.92 -27.54 94.54 -26.99 92.46 -25.89C90.38 -24.79 88.75 -23.19 87.57 -21.09C86.39 -18.99 85.8 -16.5 85.8 -13.62C85.8 -10.7 86.35 -8.16 87.45 -6C88.55 -3.84 90.06 -2.18 91.98 -1.02C93.9 0.14 96.08 0.72 98.52 0.72C101.96 0.72 105.2 -0.44 108.24 -2.76L108.24 0L116.64 0ZM105.48 -7.35C104.36 -6.69 102.96 -6.36 101.28 -6.36C100.04 -6.36 98.89 -6.68 97.83 -7.32C96.77 -7.96 95.92 -8.85 95.28 -9.99C94.64 -11.13 94.32 -12.38 94.32 -13.74C94.32 -15.82 95.01 -17.54 96.39 -18.9C97.77 -20.26 99.4 -20.94 101.28 -20.94C102.96 -20.94 104.42 -20.56 105.66 -19.8C106.9 -19.04 107.76 -18.02 108.24 -16.74L108.24 -10.32C107.52 -9 106.6 -8.01 105.48 -7.35Z M145.68 -26.22L137.28 -26.22L137.28 0L145.68 0ZM138.51 -38.55C137.57 -37.73 137.1 -36.72 137.1 -35.52C137.1 -34.32 137.57 -33.32 138.51 -32.52C139.45 -31.72 140.52 -31.32 141.72 -31.32C142.88 -31.32 143.92 -31.72 144.84 -32.52C145.76 -33.32 146.22 -34.32 146.22 -35.52C146.22 -36.72 145.76 -37.73 144.84 -38.55C143.92 -39.37 142.88 -39.78 141.72 -39.78C140.52 -39.78 139.45 -39.37 138.51 -38.55Z M166.17 -20.64C164.91 -18.52 164.28 -16.12 164.28 -13.44C164.28 -10.52 164.91 -8 166.17 -5.88C167.43 -3.76 169.19 -2.13 171.45 -0.99C173.71 0.15 176.3 0.72 179.22 0.72C182.22 0.72 184.83 0.11 187.05 -1.11C189.27 -2.33 190.98 -4.02 192.18 -6.18C193.38 -8.34 193.98 -10.76 193.98 -13.44C193.98 -16.12 193.38 -18.52 192.18 -20.64C190.98 -22.76 189.27 -24.43 187.05 -25.65C184.83 -26.87 182.26 -27.48 179.34 -27.48C176.42 -27.48 173.81 -26.87 171.51 -25.65C169.21 -24.43 167.43 -22.76 166.17 -20.64ZM174.54 -8.19C173.34 -9.57 172.74 -11.3 172.74 -13.38C172.74 -15.46 173.34 -17.19 174.54 -18.57C175.74 -19.95 177.26 -20.64 179.1 -20.64C181.02 -20.64 182.57 -19.96 183.75 -18.6C184.93 -17.24 185.52 -15.5 185.52 -13.38C185.52 -11.26 184.93 -9.52 183.75 -8.16C182.57 -6.8 181.02 -6.12 179.1 -6.12C177.26 -6.12 175.74 -6.81 174.54 -8.19Z"></path></g></g></svg>